PathFileType	4	(X/Y/Z)	CP4_315.1s.trc																												
DataRate	CameraRate	NumFrames	NumMarkers	Units	OrigDataRate	OrigDataStartFrame	OrigNumFrames																								
30	30	10	10	mm	30	2364	9454																								
Frame#	Time	pelvis_center			manubrium			l_acromion			l_humerus_epicondyle			l_radius_styloid			l_center_hand			r_acromion			r_humerus_epicondyle			r_radius_styloid			r_center_hand		
		X1	Y1	Z1	X2	Y2	Z2	X3	Y3	Z3	X4	Y4	Z4	X5	Y5	Z5	X6	Y6	Z6	X7	Y7	Z7	X8	Y8	Z8	X9	Y9	Z9	X10	Y10	Z10
																															
2364	78.76666667	-2277.145833	-134.9764029	154.0093341	-2322.853805	115.8626462	153.9952996	-2306.98134	36.99998317	8.850515325	-2267.886397	-161.2764707	-1.060973188	-2119.417609	-348.6321651	-44.99809924	-2085.480237	-389.7154392	-62.0287784	-2328.146423	40.53023418	303.9696193	-2225.281441	-127.8950417	232.2365216	-2069.535537	-54.05043108	129.792599	-2042.044057	-22.82626044	137.7572833
2365	78.8	-2277.487719	-134.9727168	154.0365452	-2322.513179	115.546801	154.0119547	-2307.648924	37.00004976	8.508903169	-2268.545796	-160.5726168	-1.516482326	-2119.666165	-348.2264489	-45.05390132	-2085.808895	-389.2525696	-62.02924905	-2328.487312	40.17257544	304.024672	-2223.523604	-124.6369247	229.3081653	-2050.424459	-81.74152598	133.7706407	-2017.500998	-64.3240714	142.4962046
2366	78.83333333	-2277.836231	-135.1312258	154.0212976	-2322.163639	115.1819306	153.868298	-2308.336135	37.00002135	8.172371836	-2269.042531	-160.1252046	-1.86057244	-2120.245093	-347.1862366	-44.93440057	-2086.209006	-388.7850128	-61.90966248	-2328.835965	39.99354742	304.0246834	-2222.036168	-121.5025519	226.9999574	-2036.150415	-102.1095574	138.0620194	-1996.174784	-98.52478618	146.4955292
2367	78.86666667	-2278.017126	-135.4696391	153.8535605	-2321.979852	114.8426672	153.5338138	-2308.970095	36.99999934	8.01816578	-2269.495647	-159.9668864	-2.028293759	-2121.784039	-344.7928962	-44.44444289	-2087.061834	-387.7767488	-61.58728218	-2329.017107	39.99550948	303.8571342	-2220.555339	-118.2263398	224.9881002	-2026.263695	-115.1782805	141.5722648	-1979.705003	-122.532597	149.5074145
2368	78.9	-2278.038397	-135.8246812	153.5127381	-2321.957952	114.5035101	153.179675	-2309.502727	36.99999956	7.985659283	-2269.861135	-159.9956167	-2.067315322	-2124.336625	-341.1967706	-43.57109024	-2088.388352	-386.1241538	-61.05769551	-2329.038442	40.012639	303.5134094	-2218.936962	-114.7129839	223.0300649	-2018.819037	-123.8670273	144.3933154	-1967.451696	-138.7568481	151.8974167
2369	78.93333333	-2278.010835	-136.0146063	153.1640577	-2321.997866	114.1765986	152.98876	-2309.983513	37.00000134	7.854491994	-2270.051825	-160.0144854	-2.035253728	-2127.089123	-337.5411114	-42.53346029	-2089.801707	-384.365215	-60.36986534	-2329.010856	39.86832821	303.1636438	-2217.232284	-111.0273948	221.1906511	-2012.861943	-130.1669161	146.8125123	-1958.285537	-150.073832	153.8245122
2370	78.96666667	-2277.996485	-136.0394943	152.9828915	-2322.038368	113.8813447	152.9502337	-2310.47597	36.99998287	7.533236504	-2270.052143	-159.8590577	-1.878939776	-2129.107672	-334.9919559	-41.64089868	-2090.904253	-383.0799768	-59.65830712	-2328.996484	39.53027883	302.9826087	-2215.580059	-107.3152409	219.6576091	-2008.225248	-134.8508361	148.9710143	-1951.248558	-158.2367909	155.3414222
2371	79	-2277.996579	-136.0113658	152.9615517	-2322.024645	113.5450702	152.9516336	-2310.989957	36.99995293	7.179002459	-2269.872855	-159.5161034	-1.536751007	-2130.161608	-333.7749393	-41.10936167	-2091.581969	-382.3798684	-59.14782902	-2328.996575	39.1728507	302.9613377	-2214.031107	-103.790268	218.4602431	-2004.703928	-138.3383464	150.964266	-1945.665492	-164.2995488	156.6625783
2372	79.03333333	-2277.999424	-135.9969627	152.9891384	-2321.862641	113.0695785	152.9844125	-2311.469343	37.00000006	6.985846501	-2269.557166	-159.1642244	-1.066694409	-2130.643744	-333.3140004	-40.93936164	-2091.917826	-382.0706228	-58.9501675	-2328.999423	38.99395393	302.9887472	-2212.54026	-100.5697004	217.482835	-2001.948109	-140.9540763	152.8014294	-1941.214304	-168.8879581	158.0057493
2373	79.06666667	-2278.000457	-135.9994696	153.0035137	-2321.537808	112.3900213	153.1539579	-2311.84942	37.00024253	6.960197315	-2269.21599	-158.9822937	-0.569346026	-2130.919201	-333.0797971	-40.95617778	-2092.026017	-381.9743812	-58.95263828	-2329.000457	38.99489283	303.0036903	-2211.090186	-97.57662389	216.6546255	-1999.643421	-142.9319679	154.4538	-1937.75045	-172.3329579	159.3070612
